PathFileType	4	(X/Y/Z)	 s04c0202.trc
DataRate	CameraRate	NumFrames	NumMarkers	Units	OrigDataRate	OrigDataStartFrame	OrigNumFrames
200	200	5	50	mm	200	1	2000
Frame#	Time	racr			lacr			c7			jug			rlel			rdr			llel			ldr			s2			lic			ric			lasi			rasi			rpsi			lpsi			rgt			lgt			rth1			rth2			rth3			rth4			rlfc			rmfc			rsh1			rsh2			rsh3			rsh4			rlmal			rmmal			rcal			rtoe			rmt5			lth1			lth2			lth4			lth3			llfc			lmfc			lsh1			lsh2			lsh3			lsh4			llmal			lmmal			lcal			ltoe			lmt5			SBIKE			LBIKE			RBIKE			
		X1	Y1	Z1	X2	Y2	Z2	X3	Y3	Z3	X4	Y4	Z4	X5	Y5	Z5	X6	Y6	Z6	X7	Y7	Z7	X8	Y8	Z8	X9	Y9	Z9	X10	Y10	Z10	X11	Y11	Z11	X12	Y12	Z12	X13	Y13	Z13	X14	Y14	Z14	X15	Y15	Z15	X16	Y16	Z16	X17	Y17	Z17	X18	Y18	Z18	X19	Y19	Z19	X20	Y20	Z20	X21	Y21	Z21	X22	Y22	Z22	X23	Y23	Z23	X24	Y24	Z24	X25	Y25	Z25	X26	Y26	Z26	X27	Y27	Z27	X28	Y28	Z28	X29	Y29	Z29	X30	Y30	Z30	X31	Y31	Z31	X32	Y32	Z32	X33	Y33	Z33	X34	Y34	Z34	X35	Y35	Z35	X36	Y36	Z36	X37	Y37	Z37	X38	Y38	Z38	X39	Y39	Z39	X40	Y40	Z40	X41	Y41	Z41	X42	Y42	Z42	X43	Y43	Z43	X44	Y44	Z44	X45	Y45	Z45	X46	Y46	Z46	X47	Y47	Z47	X48	Y48	Z48	X49	Y49	Z49	X50	Y50	Z50	
1	0.0050	469.367486	1479.149162	-106.036005	473.650727	1468.849694	-401.327566	450.530378	1526.703648	-259.981012	467.398238	1379.702210	-255.093053	500.468191	1163.554721	-8.704153	802.578863	1030.214692	-184.167179	502.533631	1179.295050	-500.210532	650.293841	845.891002	-474.635606	-51.465942	1180.265574	-279.132757	113.347139	1194.659619	-424.907202	105.007113	1171.044826	-110.010772	145.265695	1145.423114	-380.376256	151.080955	1118.666043	-154.087715	-19.779901	1215.947284	-230.531897	-23.167607	1225.476050	-306.056379	51.161676	1107.901861	-100.812745	73.415012	1125.883783	-471.825537	130.117794	960.258091	-78.107978	184.558684	891.880237	-87.158192	200.479119	807.237213	-92.405114	214.271338	906.639760	-105.011141	244.441976	668.373696	-119.001913	219.918251	652.355402	-230.043822	180.487395	557.629742	-94.935571	164.664590	469.558252	-109.188637	104.263802	406.066093	-116.420288	192.016265	459.385168	-134.922367	48.523711	264.096690	-127.696064	69.707848	269.563675	-213.075787	-24.987362	236.997114	-169.472193	270.815063	188.936460	-151.413277	200.056726	172.169738	-98.193158	136.692272	1075.564706	-476.111175	222.456588	1067.529724	-480.522226	235.599164	1098.306870	-464.763364	294.797412	1016.241792	-491.605094	433.846812	934.463415	-472.181702	468.549333	918.415806	-362.535266	392.204978	827.974993	-488.086325	365.114849	748.653651	-461.888762	299.841072	688.476663	-456.092700	388.796429	739.862201	-432.069718	214.625006	572.030224	-438.128814	213.269778	579.469526	-349.950018	130.417945	559.599053	-392.708896	427.046360	507.237569	-402.666833	351.409785	480.080395	-463.255521	-212.725658	923.172889	-282.380826	-3.290180	85.637272	-484.838881	-15.054461	80.421496	-84.262389	
2	0.0100	469.419734	1479.190566	-106.122420	473.650128	1468.871302	-401.299366	450.540017	1526.685631	-259.957049	467.389993	1379.690137	-255.066196	500.719408	1163.753264	-8.572796	801.301158	1028.518615	-186.119299	502.538526	1179.338529	-500.193501	650.663086	845.661071	-474.899506	-51.501661	1180.220210	-279.098420	113.346850	1194.669333	-424.908019	105.056173	1171.003235	-110.052546	145.276672	1145.435460	-380.359014	151.097258	1118.679776	-154.072353	-19.770867	1215.912152	-230.474737	-23.142067	1225.483500	-306.055105	51.188478	1107.895916	-100.812062	73.453003	1125.889498	-471.805669	130.163778	960.258129	-78.080347	184.536870	891.912716	-87.124721	200.494980	807.223424	-92.413364	214.289157	906.672940	-104.923565	244.445762	668.382903	-118.980159	219.911862	652.389942	-230.039699	180.510399	557.623035	-94.922495	164.698183	469.531231	-109.170247	104.303866	406.043988	-116.412728	192.045770	459.405249	-134.889937	48.615935	264.059800	-127.694629	69.817474	269.511503	-213.073612	-24.909887	236.949043	-169.467292	270.879820	188.904091	-151.411652	200.129774	172.131225	-98.180575	136.726289	1075.591949	-476.083756	222.499545	1067.547601	-480.450886	235.626390	1098.324439	-464.693664	294.846110	1016.267760	-491.511825	433.879177	934.489396	-472.028065	468.546062	918.434903	-362.403713	392.188027	828.017868	-487.990345	365.105816	748.692587	-461.808776	299.801690	688.537567	-456.029016	388.781552	739.900801	-431.983743	214.567596	572.099675	-438.114755	213.204142	579.527314	-349.915598	130.359746	559.677800	-392.695422	426.969455	507.252381	-402.641952	351.339656	480.136792	-463.241574	-212.541808	922.917384	-283.298817	-3.286009	85.655119	-484.813036	-15.056520	80.434208	-84.289300	
3	0.0150	469.433221	1479.276862	-106.201333	473.675642	1468.865481	-401.299956	450.569641	1526.680822	-260.003300	467.397227	1379.714433	-255.117462	500.941504	1163.945787	-8.432169	801.294431	1028.526233	-186.145734	502.576013	1179.389746	-500.203600	650.644533	845.684084	-474.934887	-51.498868	1180.214382	-279.077099	113.342375	1194.692548	-424.894458	105.078346	1170.962781	-110.078199	145.253708	1145.449768	-380.310059	151.098908	1118.678901	-154.058574	-19.749809	1215.910565	-230.501735	-23.145621	1225.480110	-306.028172	51.202175	1107.869076	-100.805312	73.465452	1125.892972	-471.788841	130.156347	960.242138	-78.050665	184.535017	891.890292	-87.116180	200.488636	807.194839	-92.392438	214.284996	906.654134	-104.914416	244.438008	668.368621	-118.964913	219.921946	652.376341	-230.012150	180.538969	557.593836	-94.899195	164.735265	469.507416	-109.151903	104.369278	406.003931	-116.389325	192.088188	459.381745	-134.870084	48.697760	263.994270	-127.673870	69.915887	269.467449	-213.078703	-24.816989	236.900655	-169.449091	270.983600	188.844645	-151.432850	200.228258	172.089393	-98.179524	136.754820	1075.583302	-476.043113	222.526594	1067.563599	-480.389494	235.657006	1098.345019	-464.619243	294.895502	1016.301483	-491.412354	433.918020	934.521621	-471.912699	468.549626	918.437386	-362.295185	392.186120	828.072454	-487.900165	365.091117	748.740701	-461.733082	299.756243	688.614627	-455.989526	388.747291	739.916738	-431.904108	214.517862	572.170445	-438.097561	213.147523	579.566846	-349.888261	130.282927	559.776569	-392.699493	426.894004	507.285386	-402.662600	351.257884	480.179097	-463.248037	-212.565531	923.000456	-283.059698	-3.292739	85.644232	-484.808723	-15.051194	80.408020	-84.284195	
4	0.0200	469.448299	1479.363186	-106.281022	473.707393	1468.909515	-401.340971	450.586042	1526.672199	-260.016099	467.400326	1379.708818	-255.068327	501.179002	1164.095662	-8.294383	801.161179	1027.879264	-185.796025	502.592426	1179.438494	-500.226157	650.619502	845.599019	-474.920346	-51.693106	1180.316584	-279.400792	113.304842	1194.691424	-424.862399	105.254543	1170.890339	-110.088066	145.253364	1145.468353	-380.312779	151.127160	1118.883820	-153.816047	-19.758098	1215.911031	-230.467526	-23.151843	1225.499569	-306.012528	51.222067	1107.873085	-100.799950	73.457055	1125.894266	-471.771685	130.270998	960.390199	-77.917830	185.066614	891.573901	-86.488268	200.483165	807.193254	-92.379513	214.281071	906.646180	-104.909125	244.460240	668.367299	-118.941034	219.915247	652.367652	-229.997852	180.553411	557.579154	-94.881548	163.625531	468.543683	-110.091557	104.405422	405.961042	-116.377965	192.098706	458.888191	-135.084527	48.722528	263.981951	-127.442275	70.015523	269.422912	-213.048063	-24.732139	236.851767	-169.459000	271.068672	188.790122	-151.423921	200.345762	172.023355	-98.160709	136.948017	1075.886405	-476.278632	222.562358	1067.575157	-480.328108	235.451204	1098.586707	-464.968690	294.937382	1016.327513	-491.300107	433.863703	934.580580	-471.736847	468.936805	917.570111	-362.648930	392.186655	828.110902	-487.790687	365.108904	748.800546	-461.765673	299.907247	688.555544	-455.464439	388.785965	739.997087	-432.019000	214.485914	572.087452	-437.825539	212.976703	579.662454	-349.603082	130.219484	559.846215	-392.667789	426.823751	507.305351	-402.661655	351.267331	480.136841	-463.167642	-212.532009	923.106781	-282.688187	-3.297658	85.639199	-484.808348	-15.054883	80.419707	-84.288339	
5	0.0250	469.492703	1479.407034	-106.419433	473.704747	1468.868446	-401.328976	450.607451	1526.678696	-260.041429	467.388461	1379.723736	-255.076108	501.434142	1164.343303	-8.065973	801.324027	1028.622264	-186.157749	502.618227	1179.489927	-500.260352	650.655981	845.815598	-474.961249	-51.673320	1180.604107	-279.837930	113.299524	1194.712016	-424.814281	105.230609	1170.956540	-110.379461	144.966637	1144.944137	-379.850570	151.137760	1118.894909	-153.822661	-19.720415	1216.002303	-230.455488	-23.146614	1225.619670	-305.876838	51.254447	1107.972271	-100.733152	73.398973	1125.735083	-471.555660	130.303581	960.353510	-77.961275	185.004593	891.445498	-86.870129	200.498411	807.180563	-92.376123	214.286599	906.642912	-104.880785	244.489961	668.356985	-118.919314	219.910566	652.447565	-229.979012	180.616712	557.575914	-94.871043	163.732734	468.541840	-110.119633	104.463209	405.917606	-116.392880	192.182659	458.851142	-135.139813	48.855185	264.016282	-127.208160	70.216346	269.471072	-213.144738	-24.618064	236.857853	-169.491147	271.214618	188.766892	-151.519492	200.485502	171.916433	-98.452805	137.013667	1075.894741	-476.227718	222.498674	1067.382055	-480.029443	235.381874	1098.496660	-464.769924	294.883861	1016.243653	-490.979556	433.866019	934.615897	-471.566675	468.990104	917.570338	-362.589024	392.147495	828.157951	-487.641805	365.081114	748.855731	-461.684190	299.827935	688.641118	-455.315024	388.754682	740.041158	-431.933568	214.389311	572.142356	-437.648052	212.922791	579.666445	-349.619969	130.076451	559.985138	-392.750344	426.754537	507.371887	-402.663701	351.207907	480.227630	-463.164476	-212.619728	923.048296	-282.971557	-3.105617	85.910726	-484.579411	-15.042427	80.513586	-84.199723	
